<svg xmlns="http://www.w3.org/2000/svg" width="96" height="76" viewBox="0 0 96 76">
    <g fill="#CACACA" fill-rule="evenodd">
        <path d="M76.119 26.151C75.919 11.698 63.949 0 49.266 0a26.972 26.972 0 0 0-17.718 6.607c-4.368 3.802-7.356 8.883-8.54 14.461l-.257-.001C10.206 21.067 0 31.145 0 43.533 0 55.921 10.206 66 22.751 66h15.89c1.13 0 2.047-.905 2.047-2.022 0-1.116-.917-2.021-2.048-2.021H22.751c-10.287 0-18.656-8.265-18.656-18.424 0-10.158 8.369-18.423 18.656-18.423.548 0 1.128.03 1.772.09 1.091.1 2.071-.667 2.22-1.74.737-5.337 3.405-10.245 7.513-13.82a22.85 22.85 0 0 1 15.01-5.597c12.55 0 22.76 10.083 22.76 22.476 0 .446-.033.906-.069 1.393l-.015.207a2.007 2.007 0 0 0 .617 1.593c.433.416 1.029.62 1.63.561a16.537 16.537 0 0 1 1.633-.081c8.868 0 16.083 7.125 16.083 15.882S84.69 61.956 75.822 61.956H59.114c-1.13 0-2.048.905-2.048 2.022 0 1.117.917 2.022 2.048 2.022h16.708C86.948 66 96 57.06 96 46.074c0-10.888-8.891-19.766-19.881-19.923z"/>
        <path d="M48.965 10c-8.51 0-15.796 6.321-16.946 14.703A2.025 2.025 0 0 0 34.038 27a2.031 2.031 0 0 0 2.014-1.75c.876-6.387 6.428-11.204 12.913-11.204A2.029 2.029 0 0 0 51 12.023 2.029 2.029 0 0 0 48.965 10zM58.309 50.423l-7.531-6.573a3.477 3.477 0 0 0-4.556 0l-7.53 6.573a1.99 1.99 0 0 0-.166 2.856c.762.833 2.07.905 2.924.16l4.98-4.345v24.883c0 1.118.927 2.023 2.07 2.023 1.143 0 2.07-.905 2.07-2.023V49.093l4.98 4.347a2.09 2.09 0 0 0 1.38.514c.568 0 1.135-.228 1.544-.675a1.99 1.99 0 0 0-.165-2.856z"/>
    </g>
</svg>
