<svg xmlns="http://www.w3.org/2000/svg" width="24" height="19" viewBox="0 0 24 19">
    <g fill="#CACACA" fill-rule="evenodd">
        <path d="M19.03 6.574C18.98 2.941 15.987 0 12.317 0c-1.633 0-3.206.59-4.43 1.66a6.663 6.663 0 0 0-2.135 3.637h-.064C2.552 5.296 0 7.83 0 10.943c0 3.115 2.552 5.649 5.688 5.649H9.66a.51.51 0 0 0 .512-.509.51.51 0 0 0-.512-.508H5.688c-2.572 0-4.664-2.078-4.664-4.632 0-2.553 2.092-4.631 4.664-4.631.137 0 .282.007.443.022a.511.511 0 0 0 .555-.437 5.642 5.642 0 0 1 1.878-3.475 5.694 5.694 0 0 1 3.753-1.407c3.137 0 5.69 2.535 5.69 5.651 0 .112-.009.228-.018.35l-.003.052c-.011.15.045.296.154.4a.514.514 0 0 0 .407.142c.136-.014.274-.02.409-.02 2.217 0 4.02 1.79 4.02 3.992s-1.803 3.993-4.02 3.993h-4.178a.51.51 0 0 0-.511.508c0 .281.229.508.511.508h4.178c2.781 0 5.044-2.247 5.044-5.009 0-2.737-2.223-4.969-4.97-5.009z"/>
        <path d="M12.233 2.37c-2.124 0-3.941 1.598-4.228 3.716a.51.51 0 0 0 .503.58c.25 0 .468-.185.503-.441.219-1.615 1.604-2.832 3.222-2.832a.51.51 0 0 0 .508-.511.51.51 0 0 0-.508-.512zM14.644 12.533l-1.86-1.653a.847.847 0 0 0-1.124 0L9.8 12.533a.507.507 0 0 0-.04.718c.188.21.51.227.721.04l1.23-1.092v6.255c0 .281.229.509.511.509a.51.51 0 0 0 .511-.509V12.2l1.23 1.092a.51.51 0 0 0 .681-.758z"/>
    </g>
</svg>
