<svg xmlns="http://www.w3.org/2000/svg" width="240" height="160" viewBox="0 0 240 160">
    <g fill="none" fill-rule="evenodd">
        <g opacity=".75">
            <g fill-rule="nonzero">
                <path fill="#FFF" d="M88.276 70.345h64.138v47.586H88.276z"/>
                <path fill="#A5A1A1" d="M93.793 87.586h53.103v15.862H93.793z"/>
                <path fill="#FF6649" d="M157.241 70.345v5.517H82.76v-5.517zM149.261 54.483l7.98 15.862H82.76l7.98-15.862z"/>
                <path fill="#FFF" d="M142.759 54.68V60H97.24V41.38h45.518zM138.62 102.759v1.379h-13.103v-1.38c0-3.046 2.347-5.517 5.242-5.517h2.62c2.895 0 5.242 2.47 5.242 5.518zM134.368 92.538a2.754 2.754 0 0 1 .595 2.999 2.764 2.764 0 0 1-2.543 1.704 2.77 2.77 0 0 1-2.765-2.758 2.75 2.75 0 0 1 1.703-2.55 2.76 2.76 0 0 1 3.01.605zM115.172 95.69v7.758H99.31V95.69c.005-1.427 1.186-2.582 2.644-2.587h10.575c1.458.005 2.64 1.16 2.643 2.587z"/>
                <path fill="#FF6649" d="M157.241 76.552v2.528c0 2.794-2.315 5.058-5.172 5.058-2.857 0-5.172-2.264-5.172-5.058v-2.528h10.344zM146.897 76.552v2.528c0 2.794-2.316 5.058-5.173 5.058s-5.172-2.264-5.172-5.058v-2.528h10.345zM135.862 76.552v2.528c0 2.794-2.316 5.058-5.172 5.058-2.857 0-5.173-2.264-5.173-5.058v-2.528h10.345zM125.517 76.552v2.528c0 2.794-2.316 5.058-5.172 5.058-2.857 0-5.173-2.264-5.173-5.058v-2.528h10.345zM114.483 76.552v2.528c0 2.794-2.316 5.058-5.173 5.058-2.856 0-5.172-2.264-5.172-5.058v-2.528h10.345zM103.448 76.552v2.528c0 2.794-2.315 5.058-5.172 5.058-2.857 0-5.173-2.264-5.173-5.058v-2.528h10.345zM93.103 76.552v2.528c0 2.794-2.315 5.058-5.172 5.058-2.857 0-5.172-2.264-5.172-5.058v-2.528h10.344z"/>
                <path fill="#37474F" d="M146.946 86.897H93.744a1.33 1.33 0 0 0-1.33 1.33v15.96c0 .735.595 1.33 1.33 1.33h53.202a1.33 1.33 0 0 0 1.33-1.33v-15.96a1.33 1.33 0 0 0-1.33-1.33zm-46.552 15.96v-6.65c0-.735.596-1.33 1.33-1.33h10.64c.735 0 1.33.595 1.33 1.33v6.65h-13.3zm26.601 0a3.99 3.99 0 0 1 3.99-3.99h2.66a3.99 3.99 0 0 1 3.99 3.99h-10.64zm3.99-7.98a1.33 1.33 0 1 1 2.66 0 1.33 1.33 0 0 1-2.66 0zm14.63 7.98h-5.32a6.64 6.64 0 0 0-4.409-6.234 3.99 3.99 0 1 0-7.14 0 6.64 6.64 0 0 0-4.411 6.234h-7.98v-6.65a3.99 3.99 0 0 0-3.99-3.99h-10.64a3.99 3.99 0 0 0-3.991 3.99v6.65h-2.66v-13.3h50.542v13.3z"/>
                <path fill="#37474F" d="M153.333 117.333V85.2a6.679 6.679 0 0 0 5.334-6.533v-8a1.333 1.333 0 0 0-.134-.596l-8-16a1.333 1.333 0 0 0-1.2-.738H144v-12c0-.736-.597-1.333-1.333-1.333H97.333c-.736 0-1.333.597-1.333 1.333v12h-5.333c-.506 0-.968.286-1.194.738l-8 16c-.092.185-.14.389-.14.596v8a6.679 6.679 0 0 0 5.334 6.533v32.133H80V120h80v-2.667h-6.667zM156 78.667a4 4 0 1 1-8 0v-1.334h8v1.334zm-10.667 0a4 4 0 1 1-8 0v-1.334h8v1.334zm-10.666 0a4 4 0 1 1-8 0v-1.334h8v1.334zm-10.667 0a4 4 0 1 1-8 0v-1.334h8v1.334zm-10.667 0a4 4 0 1 1-8 0v-1.334h8v1.334zm-10.666 0a4 4 0 1 1-8 0v-1.334h8v1.334zM84 72h72v2.667H84V72zm14.667-29.333h42.666v16H98.667v-16zM91.49 56H96v4c0 .736.597 1.333 1.333 1.333h45.334c.736 0 1.333-.597 1.333-1.333v-4h4.51l6.666 13.333H84.824L91.491 56zM84 78.667v-1.334h8v1.334a4 4 0 1 1-8 0zm5.333 38.666V85.2a6.659 6.659 0 0 0 4-2.573 6.605 6.605 0 0 0 10.667 0 6.605 6.605 0 0 0 10.667 0 6.605 6.605 0 0 0 10.666 0 6.605 6.605 0 0 0 10.667 0 6.605 6.605 0 0 0 10.667 0 6.659 6.659 0 0 0 4 2.573v32.133H89.333z"/>
            </g>
            <path fill="#F5A623" d="M129.303 48.372a1.86 1.86 0 1 1-.001 3.721 1.86 1.86 0 0 1 .001-3.72M120 48.372a1.86 1.86 0 1 1 .001 3.72 1.86 1.86 0 0 1-.001-3.72M110.698 48.372a1.86 1.86 0 1 1-.001 3.721 1.86 1.86 0 0 1 .001-3.72M107.907 97.21a1.395 1.395 0 1 1-2.79 0 1.395 1.395 0 0 1 2.79 0z"/>
        </g>
        <path stroke="#979797" stroke-width=".5" d="M.25.25h239.5v159.5H.25z"/>
    </g>
</svg>
