<svg xmlns="http://www.w3.org/2000/svg" width="75" height="75" viewBox="0 0 75 75">
    <g fill="none" fill-rule="evenodd">
        <g fill-rule="nonzero">
            <path fill="#F5A623" d="M16.04 40.886a3.97 3.97 0 0 1-3.963 3.975 3.97 3.97 0 0 1-3.963-3.975 3.969 3.969 0 0 1 3.963-3.975c2.19 0 3.964 1.779 3.964 3.975z"/>
            <path fill="#A5A1A1" d="M20.004 33.85v11.01h9.657a2.123 2.123 0 0 0 2.114-2.12c0-1.166-.951-2.12-2.114-2.12h-5.43v-6.77c0-1.166-.95-2.12-2.113-2.12a2.123 2.123 0 0 0-2.114 2.12z"/>
            <path fill="#FFF" d="M37.972 44.86H10.228a2.123 2.123 0 0 0-2.114 2.12v2.12h36.199v-2.12c0-1.166-.951-2.12-2.114-2.12h-4.227z"/>
            <path fill="#1C355E" d="M44.313 49.1h-36.2A2.123 2.123 0 0 0 6 51.22v6.36c0 1.166.951 2.12 2.114 2.12h1.85c0-2.927 2.366-5.3 5.284-5.3 2.919 0 5.285 2.373 5.285 5.3h13.21c0-2.927 2.367-5.3 5.285-5.3 2.919 0 5.285 2.373 5.285 5.3h1.85a2.123 2.123 0 0 0 2.113-2.12v-6.36c0-1.166-.95-2.12-2.113-2.12h-1.85z"/>
            <path fill="#A5A1A1" d="M20.533 59.7c0 2.927-2.367 5.3-5.285 5.3s-5.285-2.373-5.285-5.3c0-2.927 2.367-5.3 5.285-5.3s5.285 2.373 5.285 5.3zM44.313 59.7c0 2.927-2.366 5.3-5.285 5.3-2.918 0-5.284-2.373-5.284-5.3 0-2.927 2.366-5.3 5.284-5.3 2.919 0 5.285 2.373 5.285 5.3z"/>
            <path fill="#FFF" d="M48.276 14.12v43.46c0 1.166.952 2.12 2.114 2.12a2.123 2.123 0 0 0 2.114-2.12V14.12c0-1.166-.951-2.12-2.114-2.12a2.123 2.123 0 0 0-2.114 2.12z"/>
            <path fill="#A5A1A1" d="M68.886 50.16H52.504v4.24h16.382A2.123 2.123 0 0 0 71 52.28c0-1.166-.951-2.12-2.114-2.12z"/>
            <path fill="#787878" d="M42.2 44.86v-6.685h-2.115c-.581 0-1.11.24-1.493.623-.383.385-.62.915-.62 1.497v4.566h4.227z"/>
        </g>
        <path fill="#37474F" d="M14.5 58c-.826 0-1.5.674-1.5 1.5s.674 1.5 1.5 1.5 1.5-.674 1.5-1.5-.674-1.5-1.5-1.5zM38.5 58c-.826 0-1.5.674-1.5 1.5s.674 1.5 1.5 1.5 1.5-.674 1.5-1.5-.674-1.5-1.5-1.5z"/>
        <path fill="#37474F" fill-rule="nonzero" d="M68.547 48.4h-15.14V13.467A3.464 3.464 0 0 0 49.952 10a3.464 3.464 0 0 0-3.453 3.467v33.96a3.434 3.434 0 0 0-.797-.094h-.531v-.8c0-1.439-.878-2.676-2.125-3.2V31.2c0-8.014-6.494-14.533-14.477-14.533h-8.898c-3.076 0-5.578 2.512-5.578 5.6v13.517a5.264 5.264 0 0 0-2.656-.717c-2.93 0-5.313 2.392-5.313 5.333 0 1.316.478 2.52 1.267 3.452a3.465 3.465 0 0 0-1.267 2.681v1.068A3.472 3.472 0 0 0 4 50.8v6.4a3.464 3.464 0 0 0 3.453 3.467h.665c.617 3.04 3.3 5.333 6.507 5.333s5.89-2.294 6.507-5.333h10.892c.617 3.04 3.3 5.333 6.507 5.333s5.89-2.294 6.507-5.333h.665c.801 0 1.538-.276 2.125-.737a3.424 3.424 0 0 0 2.125.737 3.464 3.464 0 0 0 3.453-3.467v-1.867h1.86A1.33 1.33 0 0 0 56.594 54c0-.736-.595-1.333-1.328-1.333h-1.86v-1.6h15.14a.81.81 0 0 1 .798.8c0 .434-.365.8-.797.8h-4.122c-.734 0-1.328.597-1.328 1.333a1.33 1.33 0 0 0 1.328 1.333h4.122A3.464 3.464 0 0 0 72 51.867a3.464 3.464 0 0 0-3.453-3.467zm-29.75-8.593c0-.434.365-.8.797-.8h.797v4.06h-1.594v-3.26zM19.672 19.333h8.898c6.518 0 11.82 5.324 11.82 11.867v5.14h-.796c-.466 0-.91.093-1.315.262l-.728-.732.564-.565a1.337 1.337 0 0 0 0-1.886 1.325 1.325 0 0 0-1.879 0l-3.005 3.017a1.337 1.337 0 0 0 0 1.886 1.321 1.321 0 0 0 1.878 0l.564-.566.728.731a3.455 3.455 0 0 0-.26 1.32v3.26h-3.667a3.464 3.464 0 0 0-3.36-4.267h-4.13v-5.48a3.464 3.464 0 0 0-3.453-3.466 3.464 3.464 0 0 0-3.453 3.466v9.747H16.75v-2.664-.003-18.133a2.93 2.93 0 0 1 2.922-2.934zm3.984 22.134h5.459a.81.81 0 0 1 .796.8.81.81 0 0 1-.796.8h-8.38V33.32c0-.433.364-.8.796-.8a.81.81 0 0 1 .797.8v6.813a1.33 1.33 0 0 0 1.328 1.334zm-12.218-3.734a2.665 2.665 0 0 1 2.656 2.666v.003a2.664 2.664 0 0 1-2.656 2.665A2.665 2.665 0 0 1 8.78 40.4a2.665 2.665 0 0 1 2.656-2.667zm3.187 25.6c-2.197 0-3.984-1.794-3.984-4 0-2.205 1.787-4 3.984-4s3.984 1.795 3.984 4c0 2.206-1.787 4-3.984 4zm23.906 0c-2.197 0-3.984-1.794-3.984-4 0-2.205 1.787-4 3.984-4s3.984 1.794 3.985 4v.001c0 2.206-1.788 4-3.985 4zM45.703 58h-.665c-.617-3.04-3.3-5.333-6.507-5.333S32.641 54.96 32.024 58H21.132c-.617-3.04-3.3-5.333-6.507-5.333S8.735 54.96 8.118 58h-.665a.809.809 0 0 1-.797-.8v-6.4c0-.433.365-.8.797-.8h4.122a1.33 1.33 0 0 0 1.328-1.333c0-.736-.594-1.334-1.328-1.334H8.781v-.8c0-.433.365-.8.797-.8h32.14a.81.81 0 0 1 .798.8v.8H20.734c-.733 0-1.328.598-1.328 1.334A1.33 1.33 0 0 0 20.734 50h24.97a.81.81 0 0 1 .796.8v6.4a.81.81 0 0 1-.797.8zm5.047-.8a.81.81 0 0 1-.797.8.809.809 0 0 1-.797-.8V13.467c0-.434.365-.8.797-.8a.81.81 0 0 1 .797.8V57.2z"/>
        <path stroke="#A5A1A1" d="M0 66.5h75"/>
    </g>
</svg>
