<svg xmlns="http://www.w3.org/2000/svg" width="185" height="56" viewBox="0 0 185 56">
    <defs>
        <filter id="a" width="103.5%" height="104.1%" x="-1.8%" y="-2%" filterUnits="objectBoundingBox">
            <feOffset dy="2" in="SourceAlpha" result="shadowOffsetOuter1"/>
            <feGaussianBlur in="shadowOffsetOuter1" result="shadowBlurOuter1" stdDeviation="2"/>
            <feColorMatrix in="shadowBlurOuter1" result="shadowMatrixOuter1" values="0 0 0 0 0 0 0 0 0 0 0 0 0 0 0 0 0 0 0.1 0"/>
            <feMerge>
                <feMergeNode in="shadowMatrixOuter1"/>
                <feMergeNode in="SourceGraphic"/>
            </feMerge>
        </filter>
    </defs>
    <g fill="#7B1706" fill-rule="evenodd" filter="url(#a)" transform="translate(-247 -62)">
        <path d="M427.5 73.05l-1.241 7.474c-.71-.153-1.876-.687-2.964-.403-2.452.637-5.316 1.709-7.915 8.542L412.896 101H404.5l5.676-27.233h7.627l-1.536 5.53C419.874 74.33 421.942 73 426.495 73l1.005.05zM397.382 84.981v-1.027c0-2.52-1.646-5.194-6-5.194-4.294 0-6.47 3.187-7.058 6.221h13.058zm-13.647 5.039c-.06.309-.117.669-.117 1.49 0 2.314 1.763 4.732 5.882 4.732 2.588 0 4.647-1.286 5.588-2.828h9.118C402.618 97.733 397.62 102 389.09 102c-8.59 0-13.589-5.038-13.589-13.265 0-6.942 5.116-15.735 16.471-15.735 7.118 0 13.529 3.755 13.529 12.804 0 1.799-.176 3.084-.47 4.216h-21.295zM358.207 95.852c5.981 0 8.205-6.057 8.205-10.505 0-3.218-2.451-5.3-5.585-5.3-7.463 0-8.204 8.47-8.204 10.079 0 4.118 2.508 5.726 5.584 5.726zM347.567 74.8h7.584l-1.384 5.05.121.1c2.348-3.9 5.598-5.95 10.775-5.95 3.853 0 10.837 2.2 10.837 11.2 0 5.9-3.433 17-15.473 17-5.297 0-7.945-3-8.668-5.7h-.12l-3.372 15.5H339.5l8.067-37.2zM317.302 73.718h7.858l-1.33 4.923c2.72-3.488 6.407-5.641 11.424-5.641 4.593 0 9.246 2.204 9.246 7.384 0 2.155-.181 3.18-.604 5.18L340.512 101h-8.521l3.383-15.23c.303-1.385.484-2.463.484-3.231 0-2.77-2.417-3.488-3.929-3.488-5.137 0-7.978 3.23-8.945 8.05L320.022 101H311.5l5.802-27.282zM295.583 96.242c3.772 0 7.132-2.468 7.426-7.816-3.948.875-11.375.36-11.375 4.576 0 2.212 1.65 3.24 3.949 3.24zm13.029 4.936h-7.017v-2.981h-.118c-1.533 2.21-4.539 3.803-8.488 3.803-5.422 0-9.489-2.93-9.489-8.226 0-5.553 4.007-8.794 12.85-9.615l2.888-.258c3.123-.257 5.128-.617 5.128-2.674 0-2.056-1.77-2.879-4.893-2.879-2.475 0-4.421.823-4.833 3.034h-8.075c.353-2.16 1.592-4.269 3.83-5.811 2.3-1.542 5.541-2.571 9.845-2.571 7.78 0 12.26 3.085 12.26 7.867 0 1.08-.178 2.16-.413 3.292l-2.475 12.185-1 4.834zM277.015 75.39c0-2.52-1.415-5.141-6.953-5.141-3.418 0-6.188 1.31-6.188 4.082 0 1.916.825 2.974 8.25 5.393 7.071 2.318 10.96 5.493 10.96 10.886 0 7.005-5.539 11.39-15.91 11.39-9.31 0-15.674-3.83-15.674-12.197h8.485c.117 4.536 3.418 5.947 7.543 5.947 3.83 0 7.07-1.513 7.07-4.435 0-2.67-1.472-3.73-8.544-6.149-6.364-2.166-10.666-4.737-10.666-10.23 0-7.56 7.013-10.936 14.91-10.936 14.731 0 15.084 8.668 15.202 11.39h-8.485z"/>
    </g>
</svg>
