<svg xmlns="http://www.w3.org/2000/svg" xmlns:xlink="http://www.w3.org/1999/xlink" width="1360" height="245" viewBox="0 0 1360 245">
    <defs>
        <path id="a" d="M.005 0h46.28v45.913H.006z"/>
        <path id="c" d="M.005 0h46.28v45.913H.006z"/>
        <path id="e" d="M.005 0h46.28v45.913H.006z"/>
        <path id="g" d="M36.159 14.975c-2.289-.365-4.501-.905-6.664-1.539 0 0-19.756 9.43-25.933 26.38a88.974 88.974 0 0 0 26.883 8.788c34.196 5.416 66.895-9.271 85.47-35.007 0 0-.331-4.406-33.965-13.507C70.551 11.633 53.69 17.752 36.16 14.975"/>
        <path id="h" d="M.498.21h22.208v44.129H.498z"/>
        <path id="j" d="M36.159 14.975c-2.289-.365-4.501-.905-6.664-1.539 0 0-19.756 9.43-25.933 26.38a88.974 88.974 0 0 0 26.883 8.788c34.196 5.416 66.895-9.271 85.47-35.007 0 0-.331-4.406-33.965-13.507C70.551 11.633 53.69 17.752 36.16 14.975"/>
        <path id="k" d="M.637.268h28.376v56.387H.637z"/>
    </defs>
    <g fill="none" fill-rule="evenodd" transform="translate(0 -10)">
        <path fill="#B71C1C" fill-rule="nonzero" d="M0 10h1360v245H0z"/>
        <g transform="translate(48.56 42)">
            <mask id="b" fill="#fff">
                <use xlink:href="#a"/>
            </mask>
            <path fill="#1C355E" d="M23.143 0C10.423 0 0 10.34 0 22.957s10.423 22.956 23.143 22.956 23.143-10.34 23.143-22.956C46.286 10.339 35.862 0 23.143 0" mask="url(#b)"/>
        </g>
        <path fill="#B71C1C" d="M72.281 45.443c-11.178 0-20.25 9-20.25 20.087 0 11.088 9.072 20.087 20.25 20.087s20.25-8.999 20.25-20.087-9.072-20.087-20.25-20.087"/>
        <path fill="#B71C1C" d="M83.367 82.409c-1.87 1.203-4 2.15-6.28 2.661-2.084.467-4.294.547-6.541.547V45.443c1.94 0 3.985-.02 5.785.315 2.874.533 5.367 1.705 7.647 3.307 5.227 3.674 8.553 9.98 8.553 16.465 0 6.79-3.516 13.242-9.164 16.879z"/>
        <path fill="#1C355E" d="M86.194 59.016a7.66 7.66 0 0 0-2.23-6.245c-1.645-1.633-3.98-2.423-6.263-2.186a7.741 7.741 0 0 0-11.996 0c-2.31-.238-4.618.553-6.264 2.186a7.66 7.66 0 0 0-2.23 6.245 7.55 7.55 0 0 0-2.865 5.927 7.564 7.564 0 0 0 2.866 5.955 7.66 7.66 0 0 0 2.23 6.244c1.645 1.633 3.954 2.424 6.263 2.186a7.741 7.741 0 0 0 11.996 0c2.309.238 4.618-.553 6.263-2.186a7.66 7.66 0 0 0 2.23-6.244 7.564 7.564 0 0 0 2.866-5.955 7.551 7.551 0 0 0-2.866-5.927"/>
        <path fill="#1C355E" d="M90.217 64.943c0 2.345-1.132 4.532-3.057 5.955.255 2.292-.595 4.584-2.378 6.244-1.755 1.633-4.218 2.424-6.681 2.186-1.557 1.792-3.907 2.846-6.398 2.846V47.739c2.491 0 4.84 1.054 6.398 2.846 2.434-.238 4.926.553 6.68 2.186 1.784 1.66 2.634 3.952 2.379 6.245 1.925 1.422 3.057 3.609 3.057 5.927"/>
        <path fill="#B71C1C" d="M86.832 72.991L72.86 66.513l1.07-2.704 13.973 6.478-1.07 2.704"/>
        <path fill="#B71C1C" d="M77.038 82.174l-6.492-15.045 2.765-1.025 6.492 15.046-2.765 1.024"/>
        <path fill="#B71C1C" d="M66.29 82.174l-2.687-1.122 6.57-14.948 2.687 1.123-6.57 14.947"/>
        <path fill="#B71C1C" d="M56.52 71.843l-1.017-2.509 14.025-5.525 1.018 2.509-14.025 5.525"/>
        <path fill="#B71C1C" d="M69.416 66.104l-15.07-6.52 1.13-2.662 15.07 6.52-1.13 2.662"/>
        <path fill="#B71C1C" d="M70.125 63.809l-6.522-15.06 2.735-1.01L72.86 62.8l-2.735 1.01"/>
        <path fill="#B71C1C" d="M74.338 62.66l-2.635-1.091 6.622-14.978 2.635 1.092-6.622 14.978M75.078 66.104l-1.06-2.686 13.98-6.496 1.062 2.686-13.982 6.496"/>
        <path fill="#B71C1C" d="M72.281 61.513c-2.24 0-4.05 1.794-4.05 4.017 0 2.223 1.81 4.018 4.05 4.018 2.242 0 4.05-1.795 4.05-4.018s-1.808-4.017-4.05-4.017"/>
        <path fill="#B71C1C" d="M75.9 67.514c-.501.896-1.43 1.73-2.512 2.034-.536.15-1.078 0-1.685 0v-8.035c.367 0 .797-.056 1.176 0 .492.073.926.28 1.31.474 1.385.693 2.142 2.053 2.142 3.543 0 .631-.133 1.453-.43 1.984z"/>
        <g fill="#1C355E" fill-rule="nonzero">
            <path d="M47.638 77.19a3.317 3.317 0 0 0 1.203-4.408c-.867-1.63-2.875-2.258-4.484-1.402l-14.57 7.747c-1.61.856-2.212 2.871-1.345 4.502a3.316 3.316 0 0 0 4.326 1.467c3.522 8.818.502 11.128 4.96 19.512l9.402 17.683c1.299 2.442 4.316 3.386 6.726 2.104l14.57-7.747c2.41-1.282 3.315-4.31 2.017-6.753L61.04 92.213c-4.466-8.398-8.048-7.153-13.403-15.024zM45.53 93.746a10.943 10.943 0 0 0-7.346 1.938 21.101 21.101 0 0 1-.232-2.617c-.073-2.93-1.027-6.463-2.215-9.363l8.802-4.68c1.74 2.606 4.135 5.373 6.524 7.072a21.192 21.192 0 0 1 2.786 2.37c-.769 1.072-2.628 5.844-8.32 5.28z"/>
        </g>
        <g>
            <g transform="translate(728.56 93)">
                <mask id="d" fill="#fff">
                    <use xlink:href="#c"/>
                </mask>
                <path fill="#1C355E" d="M23.143 0C10.423 0 0 10.34 0 22.957s10.423 22.956 23.143 22.956 23.143-10.34 23.143-22.956C46.286 10.339 35.862 0 23.143 0" mask="url(#d)"/>
            </g>
            <path fill="#B71C1C" d="M752.281 96.443c-11.178 0-20.25 9-20.25 20.087 0 11.088 9.072 20.087 20.25 20.087s20.25-8.999 20.25-20.087-9.072-20.087-20.25-20.087"/>
            <path fill="#B71C1C" d="M763.367 133.409c-1.87 1.203-4 2.15-6.28 2.661-2.084.467-4.294.547-6.541.547V96.443c1.94 0 3.985-.02 5.785.315 2.874.533 5.367 1.705 7.647 3.307 5.227 3.674 8.553 9.98 8.553 16.465 0 6.79-3.516 13.242-9.164 16.879z"/>
            <path fill="#1C355E" d="M766.194 110.016a7.66 7.66 0 0 0-2.23-6.245c-1.645-1.633-3.98-2.423-6.263-2.186a7.741 7.741 0 0 0-11.996 0c-2.31-.238-4.618.553-6.264 2.186a7.66 7.66 0 0 0-2.23 6.245 7.55 7.55 0 0 0-2.865 5.927 7.564 7.564 0 0 0 2.866 5.955 7.66 7.66 0 0 0 2.23 6.244c1.645 1.633 3.954 2.424 6.263 2.186a7.741 7.741 0 0 0 11.996 0c2.309.238 4.618-.553 6.263-2.186a7.66 7.66 0 0 0 2.23-6.244 7.564 7.564 0 0 0 2.866-5.955 7.551 7.551 0 0 0-2.866-5.927"/>
            <path fill="#1C355E" d="M770.217 115.943c0 2.345-1.132 4.532-3.057 5.955.255 2.292-.595 4.584-2.378 6.244-1.755 1.633-4.218 2.424-6.681 2.186-1.557 1.792-3.907 2.846-6.398 2.846V98.739c2.491 0 4.84 1.054 6.398 2.846 2.434-.238 4.926.553 6.68 2.186 1.784 1.66 2.634 3.952 2.379 6.245 1.925 1.422 3.057 3.609 3.057 5.927"/>
            <path fill="#B71C1C" d="M766.832 123.991l-13.972-6.478 1.07-2.704 13.973 6.478-1.07 2.704"/>
            <path fill="#B71C1C" d="M757.038 133.174l-6.492-15.045 2.765-1.025 6.492 15.046-2.765 1.024"/>
            <path fill="#B71C1C" d="M746.29 133.174l-2.687-1.122 6.57-14.948 2.687 1.123-6.57 14.947"/>
            <path fill="#B71C1C" d="M736.52 122.843l-1.017-2.509 14.025-5.525 1.018 2.509-14.025 5.525"/>
            <path fill="#B71C1C" d="M749.416 117.104l-15.07-6.52 1.13-2.662 15.07 6.52-1.13 2.662"/>
            <path fill="#B71C1C" d="M750.125 114.809l-6.522-15.06 2.735-1.01 6.522 15.06-2.735 1.01"/>
            <path fill="#B71C1C" d="M754.338 113.66l-2.635-1.091 6.622-14.978 2.635 1.092-6.622 14.978M755.078 117.104l-1.06-2.686 13.98-6.496 1.062 2.686-13.982 6.496"/>
            <path fill="#B71C1C" d="M752.281 112.513c-2.24 0-4.05 1.794-4.05 4.017 0 2.223 1.81 4.018 4.05 4.018 2.242 0 4.05-1.795 4.05-4.018s-1.808-4.017-4.05-4.017"/>
            <path fill="#B71C1C" d="M755.9 118.514c-.501.896-1.43 1.73-2.512 2.034-.536.15-1.078 0-1.685 0v-8.035c.367 0 .797-.056 1.176 0 .492.073.926.28 1.31.474 1.385.693 2.142 2.053 2.142 3.543 0 .631-.133 1.453-.43 1.984z"/>
        </g>
        <g fill="#1C355E" fill-rule="nonzero">
            <path d="M727.638 128.19a3.317 3.317 0 0 0 1.203-4.408c-.867-1.63-2.875-2.258-4.484-1.402l-14.57 7.747c-1.61.856-2.212 2.871-1.345 4.502a3.316 3.316 0 0 0 4.326 1.467c3.522 8.818.502 11.128 4.96 19.512l9.402 17.683c1.299 2.442 4.316 3.386 6.726 2.104l14.57-7.747c2.41-1.282 3.315-4.31 2.017-6.753l-9.402-17.682c-4.466-8.398-8.048-7.153-13.403-15.024zm-2.108 16.557a10.943 10.943 0 0 0-7.346 1.938 21.101 21.101 0 0 1-.232-2.617c-.073-2.93-1.027-6.463-2.215-9.363l8.802-4.68c1.74 2.606 4.135 5.373 6.524 7.072a21.192 21.192 0 0 1 2.786 2.37c-.769 1.072-2.628 5.844-8.32 5.28z"/>
        </g>
        <ellipse cx="45.305" cy="209.205" fill="#EEEAEA" fill-rule="nonzero" rx="15.305" ry="15.205"/>
        <path fill="#B71C1C" d="M52.64 203.708c-.26 1.257-.686 2.584-.761 3.924-.05.887-.515 1.447-.875 2.126-.202.383-.488.599-.896.76-1.08.426-1.65 1.465-1.549 2.613.02.23-.032.51-.152.705-1.05 1.704-2.122 3.395-3.19 5.087-.373.59-.793.735-1.421.453a27.796 27.796 0 0 1-6.326-3.937c-.555-.458-.606-.887-.218-1.507 1.044-1.667 2.084-3.337 3.146-4.994.134-.209.363-.415.59-.499 1.12-.412 1.832-1.423 1.714-2.615-.04-.406.11-.698.249-1.049.423-1.075 1.377-1.545 2.226-2.154.79-.567 1.553-1.17 2.322-1.766.174-.134.384-.227.25-.558-.09-.224.118-.367.375-.262.077.031.145.082.216.126 1.504.939 3.01 1.873 4.506 2.822.135.086.212.264.316.4l-.522.325z"/>
        <g>
            <g transform="translate(1324)">
                <mask id="f" fill="#fff">
                    <use xlink:href="#e"/>
                </mask>
                <path fill="#1C355E" d="M23.143 0C10.423 0 0 10.34 0 22.957s10.423 22.956 23.143 22.956 23.143-10.34 23.143-22.956C46.286 10.339 35.862 0 23.143 0" mask="url(#f)"/>
            </g>
            <path fill="#B71C1C" d="M1347.721 3.443c-11.178 0-20.25 9-20.25 20.087 0 11.088 9.072 20.087 20.25 20.087s20.25-8.999 20.25-20.087-9.072-20.087-20.25-20.087"/>
            <path fill="#B71C1C" d="M1358.807 40.409c-1.87 1.203-4 2.15-6.28 2.661-2.084.467-4.294.547-6.541.547V3.443c1.94 0 3.985-.02 5.785.315 2.874.533 5.366 1.705 7.647 3.307 5.227 3.674 8.553 9.98 8.553 16.465 0 6.79-3.516 13.242-9.164 16.879z"/>
            <path fill="#1C355E" d="M1361.634 17.016a7.66 7.66 0 0 0-2.23-6.245c-1.645-1.633-3.98-2.423-6.263-2.186a7.741 7.741 0 0 0-11.996 0c-2.31-.238-4.618.553-6.264 2.186a7.66 7.66 0 0 0-2.23 6.245 7.55 7.55 0 0 0-2.865 5.927 7.564 7.564 0 0 0 2.866 5.955 7.66 7.66 0 0 0 2.23 6.244c1.645 1.633 3.954 2.424 6.263 2.186a7.741 7.741 0 0 0 11.996 0c2.309.238 4.618-.553 6.263-2.186a7.66 7.66 0 0 0 2.23-6.244 7.564 7.564 0 0 0 2.866-5.955 7.551 7.551 0 0 0-2.866-5.927"/>
            <path fill="#1C355E" d="M1365.657 22.943c0 2.345-1.132 4.532-3.057 5.955.255 2.292-.595 4.584-2.378 6.244-1.755 1.633-4.218 2.424-6.681 2.186-1.557 1.792-3.907 2.846-6.398 2.846V5.739c2.491 0 4.84 1.054 6.398 2.846 2.434-.238 4.926.553 6.68 2.186 1.784 1.66 2.634 3.952 2.379 6.245 1.925 1.422 3.057 3.609 3.057 5.927"/>
            <path fill="#B71C1C" d="M1362.272 30.991l-13.972-6.478 1.07-2.704 13.973 6.478-1.07 2.704"/>
            <path fill="#B71C1C" d="M1352.478 40.174l-6.492-15.045 2.765-1.025 6.492 15.046-2.765 1.024"/>
            <path fill="#B71C1C" d="M1341.73 40.174l-2.687-1.122 6.57-14.948 2.687 1.123-6.57 14.947"/>
            <path fill="#B71C1C" d="M1331.96 29.843l-1.017-2.509 14.025-5.525 1.018 2.509-14.025 5.525"/>
            <path fill="#B71C1C" d="M1344.856 24.104l-15.07-6.52 1.13-2.662 15.07 6.52-1.13 2.662"/>
            <path fill="#B71C1C" d="M1345.565 21.809l-6.522-15.06 2.735-1.01 6.522 15.06-2.735 1.01"/>
            <path fill="#B71C1C" d="M1349.778 20.66l-2.635-1.091 6.622-14.978 2.635 1.092-6.622 14.978M1350.518 24.104l-1.06-2.686 13.98-6.496 1.062 2.686-13.982 6.496"/>
            <path fill="#B71C1C" d="M1347.721 19.513c-2.24 0-4.05 1.794-4.05 4.017 0 2.223 1.81 4.018 4.05 4.018 2.242 0 4.05-1.795 4.05-4.018s-1.808-4.017-4.05-4.017"/>
            <path fill="#B71C1C" d="M1351.34 25.514c-.501.896-1.43 1.73-2.513 2.034-.535.15-1.077 0-1.684 0v-8.035c.367 0 .797-.056 1.176 0 .492.073.926.28 1.31.474 1.385.693 2.142 2.053 2.142 3.543 0 .631-.133 1.453-.43 1.984z"/>
        </g>
        <g fill="#1C355E" fill-rule="nonzero">
            <path d="M1323.078 35.19a3.317 3.317 0 0 0 1.202-4.408c-.866-1.63-2.874-2.258-4.483-1.402l-14.57 7.747c-1.61.856-2.212 2.871-1.345 4.502a3.316 3.316 0 0 0 4.326 1.467c3.522 8.818.502 11.128 4.96 19.512l9.402 17.683c1.299 2.442 4.316 3.386 6.726 2.104l14.57-7.747c2.41-1.282 3.315-4.31 2.017-6.753l-9.402-17.682c-4.466-8.398-8.048-7.153-13.403-15.024zm-2.108 16.557a10.943 10.943 0 0 0-7.346 1.938 21.101 21.101 0 0 1-.232-2.617c-.073-2.93-1.027-6.463-2.215-9.363l8.802-4.68c1.74 2.606 4.135 5.373 6.524 7.072a21.192 21.192 0 0 1 2.786 2.37c-.769 1.072-2.628 5.844-8.32 5.28z"/>
        </g>
        <g>
            <g fill-rule="nonzero" transform="translate(615 36)">
                <ellipse cx="80.067" cy="147.587" stroke="#1C355E" rx="47.674" ry="48.831"/>
                <ellipse cx="652.453" cy="162.39" stroke="#1C355E" rx="27.453" ry="27.39"/>
                <ellipse cx="709" cy="161.905" stroke="#FFF" rx="47" ry="46.905"/>
                <ellipse cx="71.791" cy="73.533" stroke="#FFF" rx="71.791" ry="73.533"/>
            </g>
            <path fill="#FFF" d="M1149.196 234.707c.564 1.66.981 3.335 1.317 5.01 0 0 13.444 9.78 27.19 7.765-.035-7-1.17-14.128-3.562-21.143-8.455-24.807-30.079-41.33-54.214-44.414 0 0-2.885 1.818 2.86 27.585 11.915 3.432 22.073 12.479 26.409 25.197"/>
            <path stroke="#3A3848" d="M1180.748 240.2a65.865 65.865 0 0 0-3.508-21.095c-8.4-24.736-30.02-41.163-54.197-44.173 0 0-2.896 1.822 2.789 27.525 11.928 3.392 22.08 12.393 26.387 25.072.563 1.658.974 3.326 1.308 4.995 0 0 13.441 9.727 27.221 7.675z"/>
            <g fill-rule="nonzero" transform="matrix(0 -1 -1 0 856 237)">
                <circle cx="21" cy="21" r="21" fill="#3A3848"/>
                <circle cx="31" cy="24" r="21" stroke="#FFF"/>
            </g>
            <path fill="#3A3848" d="M876.846 53.028c.24-2.305.29-4.582.237-6.835 0 0 14.222-16.643 32.194-18.222a88.974 88.974 0 0 1 1.53 28.24c-3.619 34.434-26.269 62.217-55.935 73.499 0 0-4.17-1.46-4.256-36.304 14.1-8.023 24.374-22.725 26.23-40.378"/>
            <path stroke="#FFF" d="M883.713 27.775a87.257 87.257 0 0 1 1.643 28.02c-3.507 34.138-26.162 61.606-55.93 72.687 0 0-4.197-1.464-4.41-36.025a51.74 51.74 0 0 0 26.202-39.949c.235-2.287.274-4.543.216-6.777 0 0 14.225-16.457 32.28-17.956z"/>
            <g>
                <g fill-rule="nonzero" transform="translate(951 151)">
                    <ellipse cx="54.351" cy="36" stroke="#3A3848" rx="35.649" ry="35.419"/>
                    <ellipse cx="35.649" cy="36" fill="#EEEAEA" rx="35.649" ry="35.419"/>
                </g>
                <g transform="rotate(35 240.256 1648.08)">
                    <mask id="i" fill="#fff">
                        <use xlink:href="#h"/>
                    </mask>
                    <path fill="#B71C1C" d="M18.425 1.936c1.043 2.804 1.85 5.948 3.36 8.687 1.002 1.813.778 3.491.91 5.275.074 1.004-.223 1.782-.83 2.603-1.604 2.169-1.442 4.922.18 7.065.325.429.57 1.048.575 1.581.038 4.657.016 9.314.004 13.97-.004 1.622-.654 2.425-2.245 2.64-5.79.787-11.586.766-17.376-.004-1.664-.22-2.298-1.006-2.3-2.706-.004-4.578-.02-9.155.023-13.732.006-.579.203-1.267.549-1.712 1.7-2.19 1.852-5.063.143-7.274-.582-.752-.648-1.514-.81-2.376-.497-2.644.806-4.747 1.727-6.993.858-2.089 1.616-4.22 2.398-6.341.177-.478.478-.921-.197-1.412C4.08.877 4.313.34 4.95.23c.19-.032.389-.016.583-.016 4.134.006 8.267.002 12.4.037.374.003.745.261 1.118.4l-.627 1.285" mask="url(#i)"/>
                </g>
            </g>
            <g>
                <path fill="#3A3848" d="M1085.048 101.095c.943 1.51 1.745 3.065 2.468 4.637 0 0 15.429 6.705 28.37 1.753a68.343 68.343 0 0 0-8.466-20.004c-14.107-22.547-39.11-34.107-63.394-31.92 0 0-2.387 2.41 9.3 26.486 12.44.796 24.49 7.49 31.722 19.048"/>
                <path stroke="#FFF" d="M1124.312 118.396A67.024 67.024 0 0 0 1116 98.507c-13.93-22.38-38.832-33.722-63.119-31.361 0 0-2.403 2.421 9.1 26.345a39.805 39.805 0 0 1 31.558 18.761c.934 1.5 1.721 3.043 2.434 4.605 0 0 15.37 6.575 28.339 1.54z"/>
            </g>
            <g transform="translate(1161 29)">
                <circle cx="37.5" cy="96.5" r="37.5" fill="#3A3848"/>
                <path fill="#3A3848" d="M129.143 55.439a46.532 46.532 0 0 0-1.83-15.542c-5.39-18.341-21.12-30.971-39.309-33.852 0 0-1.299 1.58 2 20.554 8.9 2.818 15.269 9.364 18.034 18.767.36 1.228.606 2.462.794 3.693 0 0 9.797 7.495 20.311 6.38"/>
                <path fill="#FFF" d="M34.206 78.891c.252-.454.228-1.116-.105-1.718-.462-.832-1.343-1.23-1.965-.885l-8.012 4.441c-.622.345-.747 1.3-.288 2.128.333.602.884.978 1.399 1.007-.416 3.302-.032 8.088-.01 8.326l.022.29 11.991 21.634c1.23 2.219 4.031 3.032 6.237 1.81l8.252-4.575c2.21-1.225 3.005-4.031 1.775-6.25L41.51 83.466l-.234-.173c-.195-.142-4.05-3.004-7.07-4.402zm-.699 9.601c-1.828 3.635-7.106 3.94-7.106 3.94s-.243-5.543.5-8.533l6.46-3.58c2.921.958 7.496 4.099 7.496 4.099s-5.522.44-7.35 4.074z"/>
            </g>
        </g>
        <g>
            <path fill="#FFF" d="M472.04 233.977c.647 1.904 1.126 3.823 1.511 5.743 0 0 15.413 11.215 31.174 8.904a76.127 76.127 0 0 0-4.083-24.241c-9.695-28.443-34.488-47.387-62.16-50.923 0 0-3.308 2.084 3.279 31.627 13.66 3.935 25.308 14.308 30.28 28.89"/>
            <path stroke="#3A3848" d="M507.728 239.099a75.518 75.518 0 0 0-4.022-24.186c-9.632-28.362-34.419-47.196-62.14-50.647 0 0-3.32 2.09 3.198 31.559 13.676 3.89 25.317 14.209 30.254 28.747.646 1.9 1.117 3.813 1.5 5.727 0 0 15.411 11.152 31.21 8.8z"/>
            <g fill-rule="nonzero" transform="matrix(0 -1 -1 0 160 236)">
                <ellipse cx="25.733" cy="25.8" fill="#3A3848" rx="25.733" ry="25.8"/>
                <ellipse cx="37.733" cy="29.8" stroke="#FFB0A1" rx="25.733" ry="25.8"/>
            </g>
            <path fill="#3A3848" d="M186.846 53.028c.24-2.305.29-4.582.237-6.835 0 0 14.222-16.643 32.194-18.222a88.974 88.974 0 0 1 1.53 28.24c-3.619 34.434-26.269 62.217-55.935 73.499 0 0-4.17-1.46-4.256-36.304 14.1-8.023 24.374-22.725 26.23-40.378"/>
            <path stroke="#FFF" d="M193.713 27.775a87.257 87.257 0 0 1 1.643 28.02c-3.507 34.138-26.162 61.606-55.93 72.687 0 0-4.197-1.464-4.41-36.025a51.74 51.74 0 0 0 26.202-39.949c.235-2.287.274-4.543.216-6.777 0 0 14.225-16.457 32.28-17.956z"/>
            <g>
                <g fill-rule="nonzero" transform="translate(261 151)">
                    <ellipse cx="69.448" cy="46" stroke="#3A3848" rx="45.552" ry="45.258"/>
                    <ellipse cx="45.552" cy="46" fill="#EEEAEA" rx="45.552" ry="45.258"/>
                </g>
                <g transform="rotate(35 -103.575 571.794)">
                    <mask id="l" fill="#fff">
                        <use xlink:href="#k"/>
                    </mask>
                    <path fill="#B71C1C" d="M23.543 2.474c1.333 3.583 2.363 7.6 4.294 11.1 1.28 2.317.993 4.461 1.162 6.74.095 1.284-.284 2.278-1.06 3.326-2.05 2.771-1.843 6.29.23 9.028.415.548.728 1.338.734 2.02.048 5.95.021 11.9.005 17.852-.005 2.07-.836 3.097-2.868 3.373-7.399 1.004-14.804.977-22.203-.006C1.711 55.625.9 54.621.9 52.448.893 46.6.872 40.751.929 34.902c.006-.74.258-1.618.7-2.188 2.173-2.799 2.366-6.469.182-9.293-.742-.961-.827-1.936-1.034-3.037-.635-3.378 1.03-6.065 2.207-8.935 1.095-2.67 2.065-5.393 3.064-8.103.226-.61.61-1.176-.253-1.803-.58-.422-.284-1.11.53-1.249.244-.041.498-.02.747-.02C12.353.28 17.635.275 22.916.32c.477.004.952.333 1.428.512l-.8 1.641" mask="url(#l)"/>
                </g>
            </g>
            <g>
                <path fill="#3A3848" d="M395.048 101.095c.943 1.51 1.745 3.065 2.468 4.637 0 0 15.429 6.705 28.37 1.753a68.343 68.343 0 0 0-8.466-20.004c-14.107-22.547-39.11-34.107-63.394-31.92 0 0-2.387 2.41 9.3 26.486 12.44.796 24.49 7.49 31.722 19.048"/>
                <path stroke="#FFF" d="M434.312 118.396A67.024 67.024 0 0 0 426 98.507c-13.93-22.38-38.832-33.722-63.119-31.361 0 0-2.403 2.421 9.1 26.345a39.805 39.805 0 0 1 31.558 18.761c.934 1.5 1.721 3.043 2.434 4.605 0 0 15.37 6.575 28.339 1.54z"/>
            </g>
            <g transform="translate(496 30)">
                <ellipse cx="46.235" cy="84.864" fill="#3A3848" rx="46.235" ry="46.136"/>
                <path fill="#3A3848" d="M128.667 67.217a57.607 57.607 0 0 0-2.261-19.206C119.75 25.342 100.342 9.729 77.9 6.164c0 0-1.601 1.954 2.474 25.403 10.979 3.484 18.838 11.576 22.252 23.197.446 1.518.75 3.043.98 4.564 0 0 12.09 9.264 25.06 7.889"/>
                <path fill="#FFF" d="M41.674 62.847c.313-.565.282-1.39-.132-2.137-.575-1.037-1.671-1.532-2.444-1.103l-9.961 5.521c-.773.429-.928 1.617-.357 2.648.415.748 1.1 1.217 1.74 1.254-.515 4.107-.035 10.062-.007 10.358l.027.362 14.922 26.92c1.531 2.762 5.014 3.775 7.756 2.255l10.26-5.687c2.747-1.523 3.734-5.013 2.203-7.775L50.76 68.543l-.291-.216c-.242-.177-5.04-3.74-8.794-5.48zm-.865 11.945c-2.272 4.521-8.835 4.897-8.835 4.897s-.305-6.895.619-10.615l8.032-4.452c3.632 1.194 9.322 5.104 9.322 5.104s-6.867.545-9.138 5.066z"/>
            </g>
        </g>
    </g>
</svg>
