<svg xmlns="http://www.w3.org/2000/svg" width="75" height="75" viewBox="0 0 75 75">
    <g fill="none" fill-rule="evenodd">
        <path fill="#FFF" d="M62.633 42.102c.614-.836 1.232-1.254 1.853-1.254h5.646c1.45.208 2.175.626 2.175 1.254 0 .629.493.725 1.48.288l.276-2.944L69.41 38 61 38.417v3.088l1.31 1.61.323-1.013z"/>
        <path fill="#FF6649" d="M72.496 11.973H10.41c-.835 0-1.518.674-1.518 1.497v5.505h56.632c.834 0 1.518.673 1.518 1.496v35.902h5.453c.834 0 1.517-.673 1.517-1.496V13.47c0-.823-.683-1.497-1.517-1.497z"/>
        <path fill="#FFF" d="M67.107 60.797c0 .823-.683 1.496-1.518 1.496H3.504c-.834 0-1.517-.673-1.517-1.496V19.39c0-.824.683-1.497 1.517-1.497H65.59c.835 0 1.518.673 1.518 1.497v41.407z"/>
        <path fill="#FFF" d="M33.63 50.016a1.502 1.502 0 0 0 2.12 0L65.786 19.94c.426-.427.433-.796.085-.964a1.48 1.48 0 0 0-.524-.097H4.032c-.412 0-.787.169-1.059.441L33.63 50.016z"/>
        <path fill="#F5A623" d="M60.893 51.947a3.947 3.947 0 1 1-7.893 0 3.947 3.947 0 0 1 7.893 0z"/>
        <path fill="#37474F" fill-rule="nonzero" d="M72.357 10H25.315a1.134 1.134 0 0 0 0 2.27h47.042c.205 0 .378.174.378.38v41.886a.383.383 0 0 1-.378.378h-4.293V19.732a2.65 2.65 0 0 0-2.643-2.65H10.202v-4.433c0-.205.173-.379.377-.379h9.751c.626 0 1.133-.508 1.133-1.135S20.956 10 20.33 10h-9.75a2.649 2.649 0 0 0-2.644 2.65v4.432H3.643A2.65 2.65 0 0 0 1 19.732v41.886c0 1.46 1.186 2.649 2.643 2.649h45.381c.626 0 1.133-.509 1.133-1.136 0-.627-.507-1.135-1.133-1.135H3.643a.383.383 0 0 1-.378-.378v-40.66l29.398 29.468c.498.5 1.161.774 1.869.774.707 0 1.37-.275 1.869-.773l13.575-13.609a1.138 1.138 0 0 0 0-1.606 1.131 1.131 0 0 0-1.601 0L34.799 48.821a.377.377 0 0 1-.267.109.375.375 0 0 1-.267-.11L4.867 19.353h59.33l-12.71 12.739a1.137 1.137 0 0 0 .801 1.938c.29 0 .58-.11.801-.333l12.709-12.739v40.66a.383.383 0 0 1-.378.378H53.706c-.626 0-1.133.508-1.133 1.135s.507 1.136 1.133 1.136H65.42a2.649 2.649 0 0 0 2.643-2.65v-4.432h4.293A2.649 2.649 0 0 0 75 54.535V12.65C75 11.19 73.814 10 72.357 10z"/>
    </g>
</svg>
