<svg xmlns="http://www.w3.org/2000/svg" width="75" height="75" viewBox="0 0 75 75">
    <g fill="none" fill-rule="evenodd">
        <path fill="#FF6649" d="M52.95 38.094V23.152c0-8.269-6.727-14.997-14.997-14.997s-14.997 6.728-14.997 14.997v14.942h-6.103V23.152c0-11.635 9.465-21.1 21.1-21.1 11.635 0 21.1 9.465 21.1 21.1v14.942H52.95z"/>
        <path fill="#FFF" d="M14.381 71.761a2.329 2.329 0 0 1-2.33-2.329V35.715a2.329 2.329 0 0 1 2.33-2.328h47.144a2.329 2.329 0 0 1 2.33 2.328v33.718a2.33 2.33 0 0 1-2.33 2.328H14.381z"/>
        <path fill="#A5A1A1" fill-rule="nonzero" d="M52.434 52.574c0 7.997-6.484 14.48-14.481 14.48s-14.48-6.483-14.48-14.48c0-7.998 6.483-14.48 14.48-14.48 7.997 0 14.48 6.482 14.48 14.48z"/>
        <path fill="#37474F" fill-rule="nonzero" d="M61.525 32.335h-1.42v-9.183C60.105 10.938 50.168 1 37.953 1 25.738 1 15.8 10.938 15.8 23.152v9.183h-1.42A3.385 3.385 0 0 0 11 35.715v33.718a3.385 3.385 0 0 0 3.381 3.38h47.144a3.385 3.385 0 0 0 3.381-3.38V35.715a3.385 3.385 0 0 0-3.38-3.38zm-43.62-9.183c0-11.054 8.993-20.048 20.048-20.048C49.008 3.104 58 12.098 58 23.152v9.183h-3.999v-9.183c0-8.85-7.2-16.049-16.05-16.049-8.848 0-16.048 7.2-16.048 16.05v9.182h-4v-9.183zm33.993 9.183h-27.89v-9.183c0-7.689 6.256-13.945 13.945-13.945 7.69 0 13.945 6.256 13.945 13.945v9.183zm9.627 38.374H14.381a1.279 1.279 0 0 1-1.277-1.277V35.715c0-.704.573-1.277 1.277-1.277h47.144c.704 0 1.277.573 1.277 1.277v33.717c0 .704-.573 1.277-1.277 1.277z"/>
        <path fill="#37474F" fill-rule="nonzero" d="M37.953 39.146c2.79 0 5.466.847 7.737 2.45a1.052 1.052 0 1 0 1.213-1.718 15.436 15.436 0 0 0-8.95-2.836c-8.565 0-15.532 6.967-15.532 15.532 0 3.227.969 6.33 2.836 8.95.51.717 1.281.382 1.466.252.474-.336.587-.992.252-1.466a13.34 13.34 0 0 1-2.45-7.736c0-7.405 6.024-13.428 13.428-13.428zM49.162 43.346a1.052 1.052 0 0 0-.25 1.467 13.337 13.337 0 0 1 2.47 7.76c0 7.405-6.024 13.43-13.43 13.43-2.804 0-5.491-.857-7.77-2.476a1.052 1.052 0 1 0-1.218 1.715 15.428 15.428 0 0 0 8.989 2.864c8.564 0 15.533-6.967 15.533-15.532 0-3.24-.988-6.345-2.857-8.979a1.052 1.052 0 0 0-1.467-.25z"/>
        <g fill="#37474F" fill-rule="nonzero">
            <path d="M41.893 47.978a3.82 3.82 0 0 1-1.312 3.393.61.61 0 0 0-.214.463v5.247c0 1.275-1.045 2.308-2.334 2.308-1.289 0-2.334-1.033-2.334-2.308v-5.247a.608.608 0 0 0-.213-.462 3.82 3.82 0 0 1-1.343-2.907c0-2.268 1.984-4.077 4.33-3.822 1.77.192 3.203 1.588 3.42 3.335z"/>
        </g>
        <path fill="#F5A623" d="M61.143 65.607a3.857 3.857 0 1 1-7.715 0 3.857 3.857 0 0 1 7.715 0z"/>
    </g>
</svg>
