<svg xmlns="http://www.w3.org/2000/svg" xmlns:xlink="http://www.w3.org/1999/xlink" width="89" height="25" viewBox="0 0 89 25">
    <defs>
        <path id="a" d="M0 0h17.262v19.088H0z"/>
        <path id="c" d="M.856.785h11.638v13.848H.856z"/>
    </defs>
    <g fill="none" fill-rule="evenodd">
        <g>
            <mask id="b" fill="#fff">
                <use xlink:href="#a"/>
            </mask>
            <path fill="#FFF" fill-rule="nonzero" d="M12.954 5.721c0-1.266-.718-2.582-3.53-2.582-1.736 0-3.142.658-3.142 2.051 0 .962.42 1.493 4.19 2.71 3.59 1.163 5.564 2.758 5.564 5.467 0 3.52-2.813 5.721-8.078 5.721C3.231 19.088 0 17.164 0 12.962h4.308c.06 2.28 1.735 2.988 3.83 2.988 1.944 0 3.59-.76 3.59-2.229 0-1.342-.749-1.873-4.339-3.088-3.23-1.089-5.415-2.38-5.415-5.14C1.974 1.696 5.535 0 9.544 0c7.48 0 7.658 4.355 7.718 5.722h-4.308z" mask="url(#b)"/>
        </g>
        <path fill="#FFF" fill-rule="nonzero" d="M22.133 16.443c1.915 0 3.62-1.215 3.77-3.849-2.005.431-5.774.178-5.774 2.254 0 1.088.837 1.595 2.004 1.595zm6.613 2.431h-3.562v-1.469h-.059c-.778 1.089-2.304 1.873-4.308 1.873-2.753 0-4.817-1.442-4.817-4.05 0-2.734 2.034-4.329 6.522-4.734l1.465-.127c1.586-.126 2.604-.304 2.604-1.317 0-1.012-.898-1.418-2.483-1.418-1.257 0-2.245.406-2.454 1.495h-4.098c.179-1.064.807-2.102 1.944-2.862C20.667 5.506 22.312 5 24.496 5c3.949 0 6.223 1.519 6.223 3.873 0 .532-.09 1.063-.209 1.621l-1.256 6-.508 2.38zM32.872 5.354h3.89l-.659 2.431C37.449 6.063 39.274 5 41.758 5c2.273 0 4.577 1.088 4.577 3.645 0 1.063-.09 1.569-.299 2.557l-1.676 7.621h-4.217l1.674-7.52c.15-.683.24-1.215.24-1.595 0-1.367-1.197-1.721-1.945-1.721-2.543 0-3.949 1.595-4.427 3.974l-1.466 6.862H30l2.872-13.469zM53.296 16.064c2.974 0 4.078-3.066 4.078-5.319 0-1.629-1.218-2.683-2.775-2.683-3.709 0-4.077 4.288-4.077 5.104 0 2.084 1.246 2.898 2.774 2.898zM48.009 5.405h3.769l-.688 2.556.06.051C52.317 6.038 53.933 5 56.505 5c1.914 0 5.386 1.114 5.386 5.67 0 2.988-1.706 8.608-7.69 8.608-2.633 0-3.949-1.519-4.307-2.886h-.061l-1.675 7.848H44l4.009-18.835zM73.129 10.899v-.507c0-1.24-.838-2.556-3.052-2.556-2.183 0-3.291 1.569-3.59 3.063h6.642zm-6.94 2.48c-.031.153-.061.33-.061.735 0 1.139.897 2.329 2.992 2.329 1.316 0 2.363-.633 2.842-1.393h4.637c-.808 2.127-3.35 4.228-7.689 4.228-4.368 0-6.91-2.481-6.91-6.531C62 9.329 64.603 5 70.377 5c3.619 0 6.88 1.848 6.88 6.303 0 .887-.089 1.52-.238 2.076h-10.83z"/>
        <g transform="translate(76 4)">
            <mask id="d" fill="#fff">
                <use xlink:href="#c"/>
            </mask>
            <path fill="#FFF" fill-rule="nonzero" d="M12.494.81l-.628 3.696c-.359-.076-.949-.34-1.5-.2-1.24.317-2.69.846-4.005 4.226l-1.257 6.101H.856L3.728 1.164h3.86L6.81 3.9C8.635 1.443 9.682.785 11.985.785l.51.025z" mask="url(#d)"/>
        </g>
    </g>
</svg>
