<svg xmlns="http://www.w3.org/2000/svg" width="24" height="24" viewBox="0 0 24 24">
    <path fill="#FFF" fill-rule="nonzero" d="M12 2c5.525 0 10 4.475 10 10s-4.475 10-10 10S2 17.525 2 12 6.475 2 12 2zm4.791 13.385L13.733 12.3l3.058-3.087a1.02 1.02 0 0 0 .002-1.428l-.07-.07a.993.993 0 0 0-1.415.001l-3.058 3.087-3.058-3.087a.998.998 0 0 0-1.416-.002l-.07.07a1.015 1.015 0 0 0 .003 1.429l3.058 3.087-3.058 3.086a1.02 1.02 0 0 0-.002 1.429l.07.07a.993.993 0 0 0 1.415-.002l3.058-3.087 3.058 3.087a.998.998 0 0 0 1.416.002l.07-.07a1.015 1.015 0 0 0-.003-1.429z"/>
</svg>
