<svg xmlns="http://www.w3.org/2000/svg" width="24" height="24" viewBox="0 0 24 24">
    <g fill="#FF6649" fill-rule="nonzero" stroke="#FF6649" stroke-width=".5">
        <path d="M19.739 12.165h-2.698c-.558 0-1.106.144-1.591.419-.413.234-.77.555-1.047.941a3.234 3.234 0 0 0-.558-.048h-2.701c-.187 0-.374.016-.558.048a3.278 3.278 0 0 0-1.047-.941 3.223 3.223 0 0 0-1.591-.419H5.25A3.257 3.257 0 0 0 2 15.415v1.831a.349.349 0 0 0 .35.347h5.535v.962c0 .193.156.35.35.35h8.51a.349.349 0 0 0 .349-.35v-.962h5.536a.349.349 0 0 0 .349-.35v-1.829a3.257 3.257 0 0 0-3.24-3.249zM7.921 16.413v.482H2.698v-1.48a2.558 2.558 0 0 1 2.552-2.552h2.698c.437 0 .866.112 1.246.328.255.144.484.33.677.55a3.266 3.266 0 0 0-1.95 2.672zm8.468.313v1.483H8.593v-1.51-.079-.187-.253l.014-.058.024-.087.017-.057a2.566 2.566 0 0 1 2.426-1.762l.07-.039h2.7a2.56 2.56 0 0 1 2.53 2.227c0 .053 0 .106.015.159v.163zm5.901.171h-5.199v-.21-.079-.082V15.886l-.016-.06V15.709l-.034-.095a3.276 3.276 0 0 0-1.772-1.855c.145-.215.321-.406.523-.568.38-.216.81-.328 1.246-.328h2.701a2.559 2.559 0 0 1 2.551 2.551v1.483zM8.335 7.383a2.457 2.457 0 1 0-3.48 3.47 2.457 2.457 0 0 0 3.48-3.47zm-.493 2.977a1.76 1.76 0 1 1-2.489-2.488 1.76 1.76 0 0 1 2.489 2.488zM18.393 6.658a2.457 2.457 0 1 0-.004 4.915 2.457 2.457 0 0 0 .004-4.915zm1.242 3.701a1.76 1.76 0 1 1-2.488-2.488 1.76 1.76 0 0 1 2.488 2.488z"/>
        <path d="M14.228 8.686a2.455 2.455 0 1 0-3.465 3.478 2.455 2.455 0 0 0 3.465-3.478zm-1.734 3.503a1.76 1.76 0 1 1 0-3.52 1.76 1.76 0 0 1 0 3.52z"/>
    </g>
</svg>
