<svg xmlns="http://www.w3.org/2000/svg" width="24" height="24" viewBox="0 0 24 24">
    <path fill="#A5A1A1" fill-rule="evenodd" d="M23 8.07a2.1 2.1 0 1 0-4.15.466l-3.059 3.301a2.045 2.045 0 0 0-2.334.285l-2.638-1.714a2.106 2.106 0 1 0-4.048.168l-3.37 3.66V2.7A.7.7 0 0 0 2 2.7v17.975a.7.7 0 0 0 .7.7h17.975c.46-.115.819-.474.934-.933V10.04A2.096 2.096 0 0 0 23 8.07zm-2.801 11.905H15.53v-4.333a2.082 2.082 0 0 0 1.242-2.764l2.983-3.053c.14.089.288.16.444.215v9.935zM9.46 11.907c.231-.083.446-.206.635-.364l2.675 1.718a2.082 2.082 0 0 0 1.358 2.381v4.333H9.461v-8.068zm5.369 1.065a.7.7 0 1 1 0 1.4.7.7 0 0 1 0-1.4zM8.76 9.237a.7.7 0 1 1 0 1.4.7.7 0 0 1 0-1.4zm-5.369 7.05l.047-.038 4.202-4.547c.135.084.279.153.43.205v8.068H3.4l-.009-3.689zM20.9 8.77a.7.7 0 1 1 0-1.4.7.7 0 0 1 0 1.4z"/>
</svg>
