<svg xmlns="http://www.w3.org/2000/svg" width="24" height="24" viewBox="0 0 24 24">
    <path fill="#A5A1A1" fill-rule="evenodd" d="M19.288 7.212c.393-.393.394-1.03.006-1.418l-.088-.088a1.006 1.006 0 0 0-1.418.006L12.5 11 7.212 5.712a1.004 1.004 0 0 0-1.418-.006l-.088.088c-.39.39-.383 1.029.006 1.418L11 12.5l-5.288 5.288a1.004 1.004 0 0 0-.006 1.418l.088.088c.39.39 1.029.383 1.418-.006L12.5 14l5.288 5.288c.393.393 1.03.394 1.418.006l.088-.088c.39-.39.383-1.029-.006-1.418L14 12.5l5.288-5.288z"/>
</svg>
