<svg xmlns="http://www.w3.org/2000/svg" width="24" height="24" viewBox="0 0 24 24">
    <path fill="#A5A1A1" fill-rule="nonzero" d="M17.282 8.047l-1.726-2.73v-.45c.337 0 .61-.288.61-.644V1.645c0-.356-.273-.645-.61-.645H9.444c-.337 0-.61.289-.61.645v2.578c0 .356.273.644.61.644v.45l-1.726 2.73A4.675 4.675 0 0 0 7 10.55v10.516C7 22.133 7.822 23 8.833 23h7.334c1.01 0 1.833-.867 1.833-1.934V10.55c0-.894-.248-1.76-.718-2.503zM10.056 2.29h4.888v1.29h-4.888v-1.29zm6.722 18.777c0 .356-.274.645-.611.645H8.833c-.337 0-.61-.29-.61-.645v-9.344c.38-.167 1.065-.41 1.833-.41 1.164 0 2.138.558 2.146.563.05.03 1.25.727 2.742.727.708 0 1.35-.157 1.834-.325v8.79zm0-10.163c-.38.167-1.066.41-1.834.41-1.164 0-2.138-.558-2.146-.563-.05-.03-1.25-.727-2.742-.727-.704 0-1.343.156-1.827.323.033-.566.207-1.11.506-1.584l1.829-2.893a.67.67 0 0 0 .103-.357v-.645h3.666v.645a.67.67 0 0 0 .103.357l1.829 2.893c.335.531.513 1.15.513 1.788v.353z"/>
</svg>
