<svg xmlns="http://www.w3.org/2000/svg" width="24" height="24" viewBox="0 0 24 24">
    <g fill="#A5A1A1" fill-rule="evenodd">
        <path d="M11.357 9.655a.564.564 0 0 0-.833-.001L8.588 11.72l-.76-.812a.563.563 0 0 0-.832 0 .658.658 0 0 0 0 .887l1.176 1.255a.565.565 0 0 0 .832.001l2.353-2.51a.658.658 0 0 0 0-.887zM11.357 14.36a.564.564 0 0 0-.833 0l-1.936 2.066-.76-.81a.563.563 0 0 0-.832 0 .658.658 0 0 0 0 .887l1.176 1.255a.568.568 0 0 0 .416.183c.15 0 .3-.061.416-.183l2.353-2.51a.658.658 0 0 0 0-.887zM16.549 10.412h-2.51c-.346 0-.627.421-.627.94 0 .52.28.942.627.942h2.51c.346 0 .627-.422.627-.941 0-.52-.28-.941-.627-.941zM16.549 16.059h-2.51c-.346 0-.627.421-.627.941s.28.941.627.941h2.51c.346 0 .627-.421.627-.941s-.28-.941-.627-.941z"/>
        <path fill-rule="nonzero" d="M18.667 3.706H16v-.677a.672.672 0 0 0-.667-.676h-1.446A2.008 2.008 0 0 0 12 1c-.87 0-1.61.566-1.887 1.353H8.667A.672.672 0 0 0 8 3.029v.677H5.333C4.6 3.706 4 4.313 4 5.059v16.235c0 .746.599 1.353 1.333 1.353h13.334c.734 0 1.333-.607 1.333-1.353V5.06c0-.746-.599-1.353-1.333-1.353zm-9.334 0h1.334a.672.672 0 0 0 .666-.677c0-.373.299-.676.667-.676.368 0 .667.303.667.676 0 .374.298.677.666.677h1.334v1.353H9.333V3.706zm9.334 17.588H5.333V5.06H8v.676c0 .374.299.677.667.677h6.666A.672.672 0 0 0 16 5.735V5.06h2.667v16.235z"/>
    </g>
</svg>
