<svg xmlns="http://www.w3.org/2000/svg" width="24" height="24" viewBox="0 0 24 24">
    <g fill="none" fill-rule="nonzero">
        <path fill="#A5A1A1" stroke="#A5A1A1" stroke-width=".5" d="M22.643 11.003a13.522 13.522 0 0 0-4.625-3.644 13.77 13.77 0 0 0-6.188-1.358A13.77 13.77 0 0 0 5.982 7.36c-1.791.86-3.39 2.12-4.625 3.644a1.57 1.57 0 0 0 0 1.994 13.522 13.522 0 0 0 4.625 3.644 13.77 13.77 0 0 0 6.188 1.358 13.77 13.77 0 0 0 5.848-1.358c1.791-.86 3.39-2.12 4.625-3.644a1.57 1.57 0 0 0 0-1.994z"/>
        <path fill="#FFF" d="M6.382 15.87a12.628 12.628 0 0 1-4.32-3.403.736.736 0 0 1 0-.934 12.628 12.628 0 0 1 5.774-3.996C6.565 8.637 5.764 10.23 5.764 12s.8 3.364 2.072 4.463c-.494-.167-.98-.365-1.454-.593z"/>
        <path fill="#FFF" d="M12 17.14c-2.945 0-5.341-2.306-5.341-5.14 0-2.834 2.396-5.14 5.341-5.14 2.945 0 5.341 2.306 5.341 5.14 0 2.834-2.396 5.14-5.341 5.14z"/>
        <path fill="#A5A1A1" stroke="#A5A1A1" stroke-width=".5" d="M12 10c-1.103 0-2 .897-2 2s.897 2 2 2 2-.897 2-2-.897-2-2-2zm0 3.217A1.218 1.218 0 0 1 10.783 12c0-.671.546-1.217 1.217-1.217s1.217.546 1.217 1.217-.546 1.217-1.217 1.217z"/>
        <path fill="#FFF" d="M21.938 12.467a12.628 12.628 0 0 1-5.772 3.994c1.27-1.099 2.07-2.692 2.07-4.461 0-1.77-.8-3.364-2.072-4.463a12.628 12.628 0 0 1 5.774 3.996.736.736 0 0 1 0 .934z"/>
    </g>
</svg>
