<svg xmlns="http://www.w3.org/2000/svg" width="24" height="24" viewBox="0 0 24 24">
    <g fill="#FF6649" fill-rule="evenodd" stroke="#FF6649" stroke-width=".5">
        <path fill-rule="nonzero" d="M21.196 5.09h-2.499V4.73a1.733 1.733 0 0 0-3.464 0v.361H9.528V4.73a1.732 1.732 0 0 0-3.464 0v.361h-2.26C2.809 5.09 2 5.898 2 6.89V20.2c0 .992.81 1.8 1.804 1.8h17.392c.995 0 1.804-.808 1.804-1.8V6.89c0-.992-.81-1.8-1.804-1.8zm-4.23-.835c.26 0 .474.213.474.474v1.978a.475.475 0 0 1-.95 0V4.729c0-.261.214-.474.475-.474zm-9.17 0c.262 0 .475.213.475.474v1.978a.475.475 0 0 1-.95 0V4.729c0-.261.213-.474.475-.474zM3.258 6.891c0-.301.245-.546.546-.546h2.26v.362a1.732 1.732 0 0 0 3.464 0v-.362h5.705v.362a1.732 1.732 0 0 0 3.464 0v-.362h2.5c.3 0 .545.245.545.546v2.08H3.258v-2.08zm18.484 13.308c0 .301-.245.546-.546.546H3.804a.547.547 0 0 1-.546-.546v-9.972h18.484v9.972z"/>
        <path d="M5.681 13H8.32c.376 0 .681-.224.681-.5s-.305-.5-.681-.5H5.68c-.376 0-.681.224-.681.5s.305.5.681.5zM11.68 13h2.64c.375 0 .68-.224.68-.5s-.305-.5-.68-.5h-2.64c-.375 0-.68.224-.68.5s.305.5.68.5zM5.681 16H8.32c.376 0 .681-.224.681-.5s-.305-.5-.681-.5H5.68c-.376 0-.681.224-.681.5s.305.5.681.5zM11.68 16h2.64c.375 0 .68-.224.68-.5s-.305-.5-.68-.5h-2.64c-.375 0-.68.224-.68.5s.305.5.68.5z"/>
    </g>
</svg>
