<svg xmlns="http://www.w3.org/2000/svg" width="24" height="24" viewBox="0 0 24 24">
    <path fill="#A5A1A1" fill-rule="nonzero" stroke="#FFF" stroke-width=".3" d="M20.44 5.19L18.809 3.56a1.914 1.914 0 0 0-2.703 0L3.97 15.695a.537.537 0 0 0-.146.277l-.815 4.405a.527.527 0 0 0 .614.614l4.404-.815a.537.537 0 0 0 .277-.146L20.44 7.893a1.91 1.91 0 0 0 0-2.703zM4.186 19.814l.493-2.664 2.17 2.171-2.663.493zm3.745-.903L5.09 16.068 15.467 5.69l2.843 2.843L7.93 18.912zM19.694 7.148l-.638.638-2.843-2.843.638-.638a.858.858 0 0 1 1.212 0l1.63 1.631a.856.856 0 0 1 0 1.212z"/>
</svg>
