<svg xmlns="http://www.w3.org/2000/svg" width="24" height="24" viewBox="0 0 24 24">
    <g fill="#A5A1A1" fill-rule="nonzero">
        <path d="M16.901 12.975h-2.85c-.78 0-1.414.634-1.414 1.414v2.186c0 .78.634 1.414 1.414 1.414h2.85c.78 0 1.415-.634 1.415-1.414v-2.186c0-.78-.635-1.414-1.415-1.414zm.386 3.6a.387.387 0 0 1-.386.386h-2.85a.387.387 0 0 1-.385-.386v-2.186c0-.214.175-.385.385-.385h2.85c.215 0 .386.175.386.385v2.186z"/>
        <path d="M22.974 9.002a.477.477 0 0 0-.068-.253l-3.12-5.485a.517.517 0 0 0-.446-.262H5.63a.508.508 0 0 0-.446.262L2.07 8.749A.52.52 0 0 0 2 9.002c0 1.23.741 2.284 1.8 2.752V20.8c0 .283.231.514.514.514h16.342a.516.516 0 0 0 .514-.514v-8.983c0-.022 0-.039-.004-.056a3.017 3.017 0 0 0 1.808-2.76zM5.93 4.035h13.11l2.439 4.29H3.496l2.434-4.29zm10.997 5.314a1.976 1.976 0 0 1-3.891 0h3.891zm-4.984 0a1.976 1.976 0 0 1-1.946 1.629 1.984 1.984 0 0 1-1.95-1.629h3.896zm-8.88 0h3.896a1.98 1.98 0 0 1-1.95 1.629 1.972 1.972 0 0 1-1.946-1.629zm7.577 10.937H7.683v-5.55c0-.402.326-.732.733-.732H9.91c.403 0 .733.325.733.732v5.55h-.004zm9.501 0H11.67v-5.55c0-.968-.789-1.761-1.762-1.761H8.411c-.968 0-1.761.789-1.761 1.761v5.555H4.829v-8.285c.06.005.12.005.18.005a3.005 3.005 0 0 0 2.494-1.329 3.005 3.005 0 0 0 4.988 0 2.997 2.997 0 0 0 4.98 0 3.005 3.005 0 0 0 2.495 1.329c.06 0 .115-.005.175-.005v8.28zm-.175-9.304a1.976 1.976 0 0 1-1.946-1.628h3.896a1.988 1.988 0 0 1-1.95 1.628z"/>
    </g>
</svg>
