<svg xmlns="http://www.w3.org/2000/svg" width="24" height="24" viewBox="0 0 24 24">
    <g fill="#A5A1A1" fill-rule="nonzero">
        <path d="M15.327 12.366a3.473 3.473 0 0 1 1.714-.45h2.698a3.507 3.507 0 0 1 3.49 3.498v1.83c0 .33-.269.599-.6.599h-5.285v.712c0 .331-.268.6-.6.6h-8.51a.599.599 0 0 1-.599-.6v-.712H2.35a.6.6 0 0 1-.599-.597v-1.832a3.507 3.507 0 0 1 3.5-3.499h2.698c.6 0 1.191.155 1.714.452.4.226.75.528 1.034.889.148-.02.298-.03.448-.03h2.7c.15 0 .3.01.449.03.283-.36.634-.663 1.034-.89zM7.67 16.413l.001-.025a3.516 3.516 0 0 1 1.776-2.715 2.277 2.277 0 0 0-1.5-.56H5.25a2.308 2.308 0 0 0-2.302 2.301v1.23h4.723v-.23zm8.468.231c0-.04 0-.04.008-.016a.585.585 0 0 1-.02-.192 2.31 2.31 0 0 0-2.282-2.009h-2.637l-.013.008-.12.03a2.313 2.313 0 0 0-2.187 1.583l-.016.054-.022.08-.007-.002v1.779h7.296v-1.315zm5.901-1.229a2.308 2.308 0 0 0-2.301-2.302h-2.7c-.395 0-.782.101-1.09.272-.107.086-.205.18-.295.283a3.529 3.529 0 0 1 1.622 1.862l.049.178v.094l-.01-.043.026.127v.761h4.7v-1.232z"/>
        <path d="M9.303 9.12a2.707 2.707 0 1 1-5.415-.004 2.707 2.707 0 0 1 5.415.004zm-1.638 1.063A1.51 1.51 0 1 0 5.53 8.05a1.51 1.51 0 0 0 2.135 2.134zM18.393 6.408a2.707 2.707 0 1 1-.004 5.415 2.707 2.707 0 0 1 .004-5.415zm1.066 3.774a1.51 1.51 0 1 0-2.135-2.134 1.51 1.51 0 0 0 2.135 2.134zM14.412 12.334a2.705 2.705 0 1 1-3.833-3.818 2.705 2.705 0 0 1 3.833 3.818zm-.408-1.905a1.51 1.51 0 1 0-3.019 0 1.51 1.51 0 0 0 3.019 0z"/>
    </g>
</svg>
